# xmcd
#
# Track frame offsets:
#	150
#	11735
#	25865
#	35873
#	46418
#	57815
#	67018
#	78830
#	91025
#	109065
#	121798
#	131343
#	142535
#	151065
#	170783
#	186240
#	196265
#	206733
#
# Disc length: 2929 seconds
#
# Revision: 3
# Processed by: cddbd v1.5.2PL0 Copyright (c) Steve Scherf et al.
# Submitted via: EZCDAudioConverter 6.0.5.1
#
DISCID=ea0b6f12
DTITLE=Marty Robbins - Memories In Song
DYEAR=1995
DGENRE=Country
TTITLE0=Up In The Air
TTITLE1=Beyond The Reef
TTITLE2=Five Brothers
TTITLE3=Unchained Melody
TTITLE4=A White Sport Coat (And A Pink Carnation)
TTITLE5=Kingston Girl
TTITLE6=The Blues Country Style
TTITLE7=Too Young
TTITLE8=Big Iron
TTITLE9=Mr. Teardrop
TTITLE10=Oh, How I Miss You (Since You Went Away)
TTITLE11=Refer Him To Me
TTITLE12=To Each His Own
TTITLE13=El Paso
TTITLE14=Don't Throw Me Away
TTITLE15=Running Gun
TTITLE16=Paper Face
TTITLE17=Hurt
EXTD=
EXTT0=
EXTT1=
EXTT2=
EXTT3=
EXTT4=
EXTT5=
EXTT6=
EXTT7=
EXTT8=
EXTT9=
EXTT10=
EXTT11=
EXTT12=
EXTT13=
EXTT14=
EXTT15=
EXTT16=
EXTT17=
PLAYORDER=
